# xmcd
#
# Track frame offsets:
#	150
#	21480
#	51933
#	77461
#	105883
#	129959
#	147275
#	170293
#	187009
#	225688
#	237864
#	272278
#	292840
#	322033
#
# Disc length: 4735 seconds
#
# Revision: 0
# Processed by: cddbd v1.4PL0 Copyright (c) Steve Scherf et al.
# Submitted via: audiograbber 1.81.00
#
DISCID=b3127d0e
DTITLE=Varios Blues AGGL - Better Days VI
DYEAR=1900
DGENRE=
TTITLE0=I Can't Quit You Baby - Led Zeppelin
TTITLE1=Better Days - Susan Tedeschi
TTITLE2=Hoodoo Man - Eric Clapton (24 Nights)
TTITLE3=It Hurts Me Too - Eric Clapton (Irving Plaza NY (26 nov '94))
TTITLE4=Watch Yourself - Eric Clapton (24 Nights)
TTITLE5=In The Garden - Susan Tedeschi (Summerfest 2K)
TTITLE6=Help the poor - B. B. King and Eric Clapton (Riding With The King)
TTITLE7=Fundamental Things - Bonnie Raitt (Fundamental)
TTITLE8=Susie Q - Creedence Clearwater Revival
TTITLE9=You Are So Beautiful - Joe Cocker
TTITLE10=You Need Love - Savoy Brown (Getting to the Point)
TTITLE11=Willie The Wimp - Stevie Ray Vaughan and Double Trouble (Live Alive)
TTITLE12=Champagne and Reefer (Incompleto) - Stevie Ray Vaughn and Buddy Guy (mp3
TTITLE12=)
TTITLE13=My Woman Has A Black Cat Bone - Albert Collins and The IcebreakersLive (
TTITLE13=Live '92 '93)
EXTD=Recopilado por AGGL
EXTT0=
EXTT1=
EXTT2=
EXTT3=
EXTT4=
EXTT5=
EXTT6=
EXTT7=
EXTT8=
EXTT9=
EXTT10=
EXTT11=
EXTT12=
EXTT13=
PLAYORDER=
